M48
; DRILL file {KiCad 9.0.1} date 2025-04-08T10:03:36+0530
; FORMAT={-:-/ absolute / metric / decimal}
; #@! TF.CreationDate,2025-04-08T10:03:36+05:30
; #@! TF.GenerationSoftware,Kicad,Pcbnew,9.0.1
; #@! TF.FileFunction,Plated,1,2,PTH
FMAT,2
METRIC
; #@! TA.AperFunction,Plated,PTH,ViaDrill
T1C0.300
; #@! TA.AperFunction,Plated,PTH,ComponentDrill
T2C0.700
; #@! TA.AperFunction,Plated,PTH,ComponentDrill
T3C0.750
; #@! TA.AperFunction,Plated,PTH,ComponentDrill
T4C0.900
; #@! TA.AperFunction,Plated,PTH,ComponentDrill
T5C1.000
; #@! TA.AperFunction,Plated,PTH,ComponentDrill
T6C1.020
; #@! TA.AperFunction,Plated,PTH,ComponentDrill
T7C1.100
; #@! TA.AperFunction,Plated,PTH,ComponentDrill
T8C1.200
; #@! TA.AperFunction,Plated,PTH,ComponentDrill
T9C1.300
%
G90
G05
T1
X140.0Y-128.0
X141.0Y-123.5
X144.0Y-121.0
X150.0Y-118.5
X151.5Y-121.0
X153.5Y-123.0
X154.0Y-124.5
X154.0Y-127.0
X161.5Y-117.5
X165.5Y-107.0
X165.5Y-127.5
X171.0Y-124.0
X173.0Y-114.5
X173.0Y-119.0
X174.0Y-124.0
X178.0Y-132.0
X189.5Y-128.5
X192.0Y-131.0
X194.5Y-124.5
X200.5Y-128.5
T2
X177.595Y-118.0
X177.595Y-123.5
X177.595Y-129.0
X177.595Y-134.5
X179.495Y-118.0
X179.495Y-123.5
X179.495Y-129.0
X179.495Y-134.5
T3
X199.73Y-118.86
X201.0Y-118.86
X202.27Y-118.86
T4
X194.73Y-131.5
X197.27Y-131.5
T5
X143.873Y-112.797
X147.653Y-112.797
X179.498Y-97.037
X179.498Y-102.037
X208.577Y-92.037
X208.577Y-107.037
T6
X113.858Y-94.317
X113.858Y-96.858
X113.858Y-99.397
X113.858Y-101.938
X113.858Y-104.477
X113.858Y-107.017
X113.858Y-109.557
X113.858Y-112.097
X113.858Y-114.637
X113.858Y-117.177
X134.177Y-94.317
X134.177Y-96.858
X134.177Y-99.397
X134.177Y-101.938
X134.177Y-104.477
X134.177Y-107.017
X134.177Y-109.557
X134.177Y-112.097
X134.177Y-114.637
X134.177Y-117.177
T7
X157.92Y-124.0
X168.08Y-124.0
T8
X120.0Y-68.0
X180.0Y-68.0
T9
X157.19Y-131.49
X163.69Y-131.49
X164.032Y-112.797
X169.072Y-112.797
M30
